<?xml version="1.0" standalone="no"?>
<!DOCTYPE svg PUBLIC "-//W3C//DTD SVG 20010904//EN"
 "http://www.w3.org/TR/2001/REC-SVG-20010904/DTD/svg10.dtd">
<svg version="1.0" xmlns="http://www.w3.org/2000/svg"
 width="700.000000pt" height="500.000000pt" viewBox="0 0 700.000000 500.000000"
 preserveAspectRatio="xMidYMid meet">
<metadata>
Created by potrace 1.16, written by Peter Selinger 2001-2019
</metadata>
<g transform="translate(0.000000,500.000000) scale(0.100000,-0.100000)"
fill="#000000" stroke="none">
<path d="M4050 2699 c-74 -21 -103 -97 -59 -154 12 -15 55 -43 95 -62 40 -19
75 -42 79 -50 3 -9 -2 -26 -10 -39 -20 -31 -75 -32 -117 -3 l-30 22 -20 -21
c-11 -11 -17 -25 -14 -31 15 -24 73 -44 129 -44 65 0 102 20 126 68 12 25 12
35 0 69 -13 37 -22 45 -93 81 -87 44 -107 65 -90 93 16 24 81 28 106 6 23 -21
53 -9 53 22 0 35 -92 61 -155 43z"/>
<path d="M2767 2693 c-4 -3 -7 -89 -7 -190 l0 -183 115 0 115 0 0 25 c0 25 -1
25 -80 25 l-80 0 0 165 0 165 -28 0 c-16 0 -32 -3 -35 -7z"/>
<path d="M3050 2510 l0 -190 110 0 110 0 0 25 c0 24 -2 25 -75 25 l-75 0 0 60
0 60 55 0 c54 0 55 0 55 30 0 30 -1 30 -55 30 l-55 0 0 50 0 50 70 0 c68 0 70
1 70 25 l0 25 -105 0 -105 0 0 -190z"/>
<path d="M3320 2693 c0 -5 21 -90 47 -190 l48 -183 30 0 31 0 34 138 c18 75
36 130 38 122 3 -8 17 -69 32 -135 l26 -120 32 -3 c29 -3 32 0 43 40 65 236
87 324 83 330 -3 5 -19 8 -35 8 -36 0 -39 -7 -68 -154 -12 -60 -23 -111 -25
-113 -2 -3 -18 57 -36 131 -29 126 -33 136 -55 136 -21 0 -25 -10 -56 -135
-18 -74 -36 -131 -39 -127 -4 4 -17 57 -29 117 -31 154 -27 145 -67 145 -19 0
-34 -3 -34 -7z"/>
<path d="M3830 2510 l0 -190 30 0 30 0 0 190 0 190 -30 0 -30 0 0 -190z"/>
</g>
</svg>
